<?xml version="1.0" standalone="no"?>
<!DOCTYPE svg PUBLIC "-//W3C//DTD SVG 20010904//EN"
 "http://www.w3.org/TR/2001/REC-SVG-20010904/DTD/svg10.dtd">
<svg version="1.0" xmlns="http://www.w3.org/2000/svg"
 width="16.000000pt" height="16.000000pt" viewBox="0 0 16.000000 16.000000"
 preserveAspectRatio="xMidYMid meet">

<g transform="translate(0.000000,16.000000) scale(0.100000,-0.100000)"
fill="#2AB7FE" stroke="none">
<path d="M114 135 c-3 -8 -3 -19 0 -24 9 -13 36 -2 36 14 0 19 -30 27 -36 10z"/>
<path d="M26 118 c-22 -32 -20 -61 7 -86 31 -29 68 -28 97 3 25 27 20 47 -8
27 -31 -22 -44 -25 -61 -15 -25 15 -25 50 -2 63 26 14 27 30 2 30 -11 0 -27
-10 -35 -22z"/>
</g>
</svg>
